<?xml version="1.0" standalone="no"?>
<!DOCTYPE svg PUBLIC "-//W3C//DTD SVG 20010904//EN"
 "http://www.w3.org/TR/2001/REC-SVG-20010904/DTD/svg10.dtd">
<svg version="1.0" xmlns="http://www.w3.org/2000/svg"
 viewBox="0 0 920.000000 920.000000"
 preserveAspectRatio="xMidYMid meet">

<g transform="translate(0.000000,920.000000) scale(0.100000,-0.100000)"
fill="#0391D3" stroke="none">
<path d="M1170 6877 c-99 -29 -124 -49 -432 -355 -329 -327 -356 -361 -377
-474 -14 -76 0 -153 39 -227 24 -45 88 -114 273 -297 133 -132 924 -916 1757
-1744 2105 -2092 1949 -1940 2023 -1975 54 -26 73 -30 147 -30 74 0 93 4 147
30 74 36 -56 -91 2003 1955 817 811 1601 1590 1743 1730 143 140 271 273 286
295 46 67 63 123 64 207 1 69 -3 84 -36 150 -33 67 -63 100 -344 379 -327 325
-345 339 -461 360 -40 8 -73 7 -117 -1 -119 -23 37 124 -1885 -1759 -715 -701
-944 -925 -1183 -1161 l-217 -215 -208 205 c-114 113 -313 309 -442 435 -129
127 -347 341 -485 476 -137 134 -360 352 -495 484 -134 132 -355 348 -490 481
-961 943 -1008 988 -1072 1021 -75 38 -168 50 -238 30z"/>
</g>
</svg>
